#!OML:ASF F:\VICON\USERDATA\INSTALL\rory3\rory3.ASF
:FULLY-SPECIFIED
:DEGREES
454
root 2.01884 18.894 -4.11425 -3.07234 -10.5416 2.00754
lowerback 5.65985 1.39284 -2.55643
upperback 1.0401 1.66847 -1.26216
thorax -2.13638 0.844025 0.0117275
lowerneck -5.2488 -2.61527 -5.45464
upperneck 15.8988 -3.84669 5.53552
head 5.86864 -1.81334 2.39222
rclavicle -2.44505e-014 -3.57812e-015
rhumerus 9.61009 30.5255 -65.4821
rradius 126.603
rwrist -13.7494
rhand -37.887 -5.92814
rfingers 7.12502
rthumb -10.9303 -35.6236
lclavicle -2.44505e-014 -3.57812e-015
lhumerus -44.7365 -4.43729 79.3117
lradius 93.0234
lwrist -13.008
lhand -34.9068 33.2672
lfingers 7.12502
lthumb -8.05478 63.0938
rfemur 4.67636 20.0351 16.3842
rtibia 12.5086
rfoot -13.3692 -21.0468
rtoes -7.23076
lfemur 0 0 0
ltibia 0
lfoot 0 0
ltoes 0
455
root 2.01878 18.8942 -4.11171 -3.02879 -10.4997 2.03949
lowerback 5.58098 1.40547 -2.59728
upperback 1.04259 1.6857 -1.27105
thorax -2.09101 0.852486 0.0262393
lowerneck -5.28893 -2.65854 -5.36649
upperneck 15.8017 -3.89662 5.45423
head 5.84506 -1.83762 2.34741
rclavicle 3.13831e-014 1.03368e-014
rhumerus 10.1136 30.1903 -65.2516
rradius 126.833
rwrist -13.6889
rhand -37.8655 -5.32982
rfingers 7.12502
rthumb -10.9096 -35.0264
lclavicle 3.13831e-014 1.03368e-014
lhumerus -44.9605 -3.9791 79.1698
lradius 92.9437
lwrist -12.8691
lhand -34.7491 33.4165
lfingers 7.12502
lthumb -7.90258 63.2488
rfemur 4.59045 19.9656 16.319
rtibia 12.581
rfoot -13.3816 -21.0107
rtoes -7.25281
lfemur 0 0 0
ltibia 0
lfoot 0 0
ltoes 0
456
root 2.01852 18.8942 -4.11085 -3.02296 -10.4202 2.16378
lowerback 5.55258 1.41623 -2.74339
upperback 1.0652 1.69217 -1.30706
thorax -2.05512 0.856012 0.0715578
lowerneck -5.33275 -2.71205 -5.29774
upperneck 15.6438 -3.96318 5.42019
head 5.80521 -1.86797 2.31948
rclavicle 5.56597e-015 5.36719e-015
rhumerus 10.6366 29.8956 -65.0167
rradius 127.1
rwrist -13.5632
rhand -37.8544 -4.69101
rfingers 7.12502
rthumb -10.8988 -34.3882
lclavicle 5.56597e-015 5.36719e-015
lhumerus -45.1202 -3.5533 79.034
lradius 92.7832
lwrist -12.8276
lhand -34.9139 33.5877
lfingers 7.12502
lthumb -8.06166 63.414
rfemur 4.57733 19.8647 16.1616
rtibia 12.615
rfoot -13.5108 -20.9393
rtoes -7.00229
lfemur 0 0 0
ltibia 0
lfoot 0 0
ltoes 0
457
root 2.01612 18.8953 -4.11554 -3.01787 -10.284 2.18513
lowerback 5.63789 1.41301 -2.79645
upperback 1.04207 1.68009 -1.33149
thorax -2.12709 0.851038 0.074362
lowerneck -5.21515 -2.75898 -5.23983
upperneck 15.433 -4.03465 5.45027
head 5.72242 -1.89989 2.31528
rclavicle 2.77926e-014 -1.07344e-014
rhumerus 11.0809 29.6415 -64.845
rradius 127.388
rwrist -13.4731
rhand -37.6866 -4.75396
rfingers 7.12502
rthumb -10.737 -34.4596
lclavicle 2.77926e-014 -1.07344e-014
lhumerus -45.4179 -3.10086 78.8674
lradius 92.6588
lwrist -13.0149
lhand -35.1102 33.5582
lfingers 7.12502
lthumb -8.25116 63.377
rfemur 4.58713 19.8113 16.161
rtibia 12.6424
rfoot -13.5666 -21.0197
rtoes -6.89205
lfemur 0 0 0
ltibia 0
lfoot 0 0
ltoes 0
458
root 2.01374 18.8958 -4.12226 -3.0009 -10.1405 2.17275
lowerback 5.73207 1.41094 -2.79631
upperback 1.01011 1.67194 -1.36144
thorax -2.21155 0.847862 0.0410854
lowerneck -5.05332 -2.80474 -5.19728
upperneck 15.2105 -4.11037 5.52271
head 5.62978 -1.93288 2.32744
rclavicle -7.23079e-015 2.14687e-014
rhumerus 11.4805 29.3572 -64.705
rradius 127.695
rwrist -13.5358
rhand -37.4976 -5.28817
rfingers 7.12502
rthumb -10.5546 -35.0032
lclavicle -7.23079e-015 2.14687e-014
lhumerus -45.6875 -2.73453 78.6745
lradius 92.599
lwrist -13.2015
lhand -35.0821 33.3713
lfingers 7.12502
lthumb -8.22405 63.1912
rfemur 4.57617 19.7576 16.1971
rtibia 12.6428
rfoot -13.4964 -21.1458
rtoes -7.0565
lfemur 0 0 0
ltibia 0
lfoot 0 0
ltoes 0
459
root 2.01141 18.8954 -4.12758 -2.974 -10.0315 2.19865
lowerback 5.74817 1.42233 -2.84455
upperback 1.03316 1.68331 -1.39187
thorax -2.19752 0.853447 0.0358423
lowerneck -4.96619 -2.86962 -5.17432
upperneck 14.9035 -4.20296 5.59895
head 5.52549 -1.97425 2.34192
rclavicle -5.57839e-015 -3.97569e-016
rhumerus 11.9514 28.9692 -64.5358
rradius 127.955
rwrist -13.4652
rhand -37.2113 -5.59734
rfingers 7.12502
rthumb -10.2784 -35.3262
lclavicle -5.57839e-015 -3.97569e-016
lhumerus -45.7812 -2.39454 78.5184
lradius 92.5052
lwrist -13.2104
lhand -35.0582 33.0675
lfingers 7.12502
lthumb -8.20091 62.8884
rfemur 4.58437 19.7355 16.179
rtibia 12.5725
rfoot -13.4642 -21.2285
rtoes -7.04173
lfemur 0 0 0
ltibia 0
lfoot 0 0
ltoes 0
460
root 2.00747 18.8952 -4.13181 -2.93782 -9.91564 2.13746
lowerback 5.7567 1.42012 -2.8438
upperback 1.05313 1.68129 -1.36434
thorax -2.18246 0.852237 0.0640059
lowerneck -4.91535 -2.94389 -5.17328
upperneck 14.6266 -4.29294 5.5919
head 5.43586 -2.02045 2.33371
rclavicle 6.79595e-015 1.19271e-015
rhumerus 12.3867 28.5688 -64.3579
rradius 128.12
rwrist -13.1917
rhand -36.7794 -5.56724
rfingers 7.12502
rthumb -9.8618 -35.3163
lclavicle 6.79595e-015 1.19271e-015
lhumerus -45.9057 -1.97271 78.4184
lradius 92.427
lwrist -13.2146
lhand -35.0362 33.1649
lfingers 7.12502
lthumb -8.17967 62.9866
rfemur 4.64067 19.7265 16.2746
rtibia 12.4622
rfoot -13.4581 -21.3404
rtoes -6.87018
lfemur 0 0 0
ltibia 0
lfoot 0 0
ltoes 0
461
root 2.00319 18.8945 -4.1366 -2.93684 -9.78866 2.01223
lowerback 5.90079 1.40488 -2.80051
upperback 1.01517 1.65868 -1.29194
thorax -2.30246 0.842249 0.111605
lowerneck -4.89637 -2.99287 -5.23527
upperneck 14.5267 -4.34765 5.57887
head 5.40594 -2.05197 2.33632
rclavicle -1.86485e-014 9.14409e-015
rhumerus 12.68 28.3519 -64.1736
rradius 128.306
rwrist -12.9364
rhand -36.5676 -5.77865
rfingers 7.12502
rthumb -9.65745 -35.5373
lclavicle -1.86485e-014 9.14409e-015
lhumerus -46.1909 -1.55469 78.3399
lradius 92.4281
lwrist -13.288
lhand -34.8283 33.4328
lfingers 7.12502
lthumb -7.97904 63.2622
rfemur 4.74943 19.7085 16.4617
rtibia 12.3498
rfoot -13.4173 -21.4725
rtoes -6.81858
lfemur 0 0 0
ltibia 0
lfoot 0 0
ltoes 0
462
root 2.00142 18.8945 -4.13632 -2.93861 -9.80079 1.92594
lowerback 6.00336 1.43194 -2.76418
upperback 0.968586 1.69297 -1.24451
thorax -2.40896 0.860497 0.133801
lowerneck -4.97752 -3.02452 -5.28869
upperneck 14.5581 -4.38783 5.61148
head 5.43379 -2.07079 2.35159
rclavicle -3.37934e-014 3.57812e-015
rhumerus 12.9202 28.2298 -64.0326
rradius 128.528
rwrist -12.7114
rhand -36.5102 -6.01417
rfingers 7.12502
rthumb -9.60213 -35.7753
lclavicle -3.37934e-014 3.57812e-015
lhumerus -46.4847 -1.19588 78.2339
lradius 92.425
lwrist -13.284
lhand -34.539 33.3035
lfingers 7.12502
lthumb -7.6998 63.1433
rfemur 4.82014 19.7713 16.5773
rtibia 12.2237
rfoot -13.281 -21.5369
rtoes -7.05419
lfemur 0 0 0
ltibia 0
lfoot 0 0
ltoes 0
463
root 2.00452 18.8943 -4.12343 -2.92226 -9.97829 1.898
lowerback 5.83462 1.51502 -2.66708
upperback 0.983504 1.81642 -1.25887
thorax -2.29874 0.920209 0.0597084
lowerneck -5.05492 -3.04382 -5.30033
upperneck 14.5504 -4.41918 5.68012
head 5.44811 -2.08095 2.37189
rclavicle -2.26366e-014 -3.97569e-016
rhumerus 13.177 28.0474 -63.9421
rradius 128.769
rwrist -12.5654
rhand -36.4595 -6.32225
rfingers 7.12502
rthumb -9.55317 -36.0857
lclavicle -2.26366e-014 -3.97569e-016
lhumerus -46.6255 -0.927798 78.1033
lradius 92.3512
lwrist -13.225
lhand -34.7375 33.7153
lfingers 7.12502
lthumb -7.89144 63.5481
rfemur 4.84596 19.8053 16.5576
rtibia 12.0913
rfoot -13.1603 -21.399
rtoes -7.25559
lfemur 0 0 0
ltibia 0
lfoot 0 0
ltoes 0
464
root 2.00878 18.8929 -4.1096 -2.92229 -10.09 1.92212
lowerback 5.63576 1.58746 -2.57183
upperback 1.01386 1.92601 -1.30459
thorax -2.15406 0.972735 -0.0426428
lowerneck -4.98681 -3.0526 -5.33725
upperneck 14.4168 -4.43951 5.78507
head 5.39904 -2.08778 2.41045
rclavicle -1.56543e-014 2.78299e-015
rhumerus 13.4393 27.8492 -63.8238
rradius 129.021
rwrist -12.5245
rhand -36.5058 -6.5999
rfingers 7.12502
rthumb -9.5978 -36.3613
lclavicle -1.56543e-014 2.78299e-015
lhumerus -46.6491 -0.710661 77.9733
lradius 92.2202
lwrist -13.2598
lhand -35.2981 34.753
lfingers 7.12502
lthumb -8.43246 64.5646
rfemur 4.90775 19.7287 16.4728
rtibia 11.9823
rfoot -13.1699 -21.2029
rtoes -7.1813
lfemur 0 0 0
ltibia 0
lfoot 0 0
ltoes 0
465
root 2.00902 18.8927 -4.10656 -2.9353 -10.1035 1.89886
lowerback 5.60572 1.61294 -2.50619
upperback 0.996095 1.96479 -1.29816
thorax -2.15434 0.991803 -0.0750881
lowerneck -4.83451 -3.06317 -5.41235
upperneck 14.2862 -4.45111 5.81364
head 5.33542 -2.09877 2.43308
rclavicle 1.97294e-014 6.36111e-015
rhumerus 13.7218 27.7466 -63.6772
rradius 129.177
rwrist -12.4276
rhand -36.4487 -6.49349
rfingers 7.12502
rthumb -9.5427 -36.2574
lclavicle 1.97294e-014 6.36111e-015
lhumerus -46.7391 -0.405255 77.8401
lradius 92.1028
lwrist -13.3287
lhand -35.5728 34.7119
lfingers 7.12502
lthumb -8.69757 64.5128
rfemur 4.9936 19.7322 16.5018
rtibia 11.8893
rfoot -13.1663 -21.1711
rtoes -7.04412
lfemur 0 0 0
ltibia 0
lfoot 0 0
ltoes 0
466
root 2.00696 18.8925 -4.10905 -2.95721 -10.1197 1.79194
lowerback 5.67016 1.60715 -2.43038
upperback 0.945738 1.96003 -1.22314
thorax -2.2422 0.990105 -0.0429496
lowerneck -4.62989 -3.04838 -5.54352
upperneck 14.1697 -4.42212 5.81465
head 5.26561 -2.09544 2.45976
rclavicle -1.18028e-014 -1.59028e-014
rhumerus 13.9925 27.7744 -63.5564
rradius 129.29
rwrist -12.3222
rhand -36.247 -6.45826
rfingers 7.12502
rthumb -9.34815 -36.231
lclavicle -1.18028e-014 -1.59028e-014
lhumerus -46.9509 0.034501 77.718
lradius 92.029
lwrist -13.3094
lhand -35.6548 33.6093
lfingers 7.12502
lthumb -8.7767 63.4068
rfemur 5.08257 19.8025 16.6526
rtibia 11.796
rfoot -13.1171 -21.2006
rtoes -6.93056
lfemur 0 0 0
ltibia 0
lfoot 0 0
ltoes 0
